<svg 
 xmlns="http://www.w3.org/2000/svg"
 xmlns:xlink="http://www.w3.org/1999/xlink"
 width="19px" height="19px" viewBox="0 0 19 19">
<path fill-rule="evenodd"  fill="rgb(255, 255, 255)"
 d="M17.000,4.000 C15.895,4.000 15.000,3.104 15.000,2.000 C15.000,0.895 15.895,-0.000 17.000,-0.000 C18.105,-0.000 19.000,0.895 19.000,2.000 C19.000,3.104 18.105,4.000 17.000,4.000 ZM8.000,19.000 C3.582,19.000 -0.000,15.418 -0.000,11.000 C-0.000,6.582 3.582,3.000 8.000,3.000 C12.418,3.000 16.000,6.582 16.000,11.000 C16.000,15.418 12.418,19.000 8.000,19.000 ZM8.000,6.000 C5.239,6.000 3.000,8.239 3.000,11.000 C3.000,13.761 5.239,16.000 8.000,16.000 C10.761,16.000 13.000,13.761 13.000,11.000 C13.000,8.239 10.761,6.000 8.000,6.000 Z"/>
</svg>

