<svg 
 xmlns="http://www.w3.org/2000/svg"
 xmlns:xlink="http://www.w3.org/1999/xlink"
 width="23px" height="20px" viewBox="0 0 23 20">
<path fill-rule="evenodd"  fill="rgb(0,0,0)"
 d="M0.404,9.586 L5.704,11.562 L7.755,18.150 C7.886,18.572 8.402,18.728 8.746,18.448 L11.699,16.042 C12.010,15.791 12.451,15.778 12.774,16.013 L18.102,19.876 C18.469,20.142 18.989,19.942 19.080,19.500 L22.983,0.750 C23.084,0.266 22.609,-0.137 22.148,0.041 L0.398,8.420 C-0.139,8.627 -0.134,9.387 0.404,9.586 ZM7.425,10.511 L17.781,4.140 C17.968,4.026 18.159,4.278 18.000,4.426 L9.451,12.360 C9.151,12.639 8.958,13.013 8.903,13.419 L8.611,15.574 C8.573,15.863 8.167,15.891 8.089,15.612 L6.969,11.681 C6.841,11.235 7.027,10.755 7.425,10.511 Z"/>
</svg>

