<svg xmlns="http://www.w3.org/2000/svg" width="28" height="28" viewBox="0 0 28 28">
  <metadata><?xpacket begin="﻿" id="W5M0MpCehiHzreSzNTczkc9d"?>
<x:xmpmeta xmlns:x="adobe:ns:meta/" x:xmptk="Adobe XMP Core 5.6-c142 79.160924, 2017/07/13-01:06:39        ">
   <rdf:RDF xmlns:rdf="http://www.w3.org/1999/02/22-rdf-syntax-ns#">
      <rdf:Description rdf:about=""/>
   </rdf:RDF>
</x:xmpmeta>
                                                                                                    
                                                                                                    
                                                                                                    
                                                                                                    
                                                                                                    
                                                                                                    
                                                                                                    
                                                                                                    
                                                                                                    
                                                                                                    
                                                                                                    
                                                                                                    
                                                                                                    
                                                                                                    
                                                                                                    
                                                                                                    
                                                                                                    
                                                                                                    
                                                                                                    
                                                                                                    
                           
<?xpacket end="w"?></metadata>
<defs>
    <style>
      .cls-1 {
        fill: #fff;
        fill-rule: evenodd;
      }
    </style>
  </defs>
  <path id="Rounded_Rectangle_2557" data-name="Rounded Rectangle 2557" class="cls-1" d="M1383,864h16a2,2,0,0,1,2,2v16a2,2,0,0,1-2,2h-16a2,2,0,0,1-2-2V866A2,2,0,0,1,1383,864Zm2,3h12a1,1,0,0,1,1,1v12a1,1,0,0,1-1,1h-12a1,1,0,0,1-1-1V868A1,1,0,0,1,1385,867Zm6,5h16a2,2,0,0,1,2,2v16a2,2,0,0,1-2,2h-16a2,2,0,0,1-2-2V874A2,2,0,0,1,1391,872Zm2,3h12a1,1,0,0,1,1,1v12a1,1,0,0,1-1,1h-12a1,1,0,0,1-1-1V876A1,1,0,0,1,1393,875Z" transform="translate(-1381 -864)"/>
</svg>
