<svg 
 xmlns="http://www.w3.org/2000/svg"
 xmlns:xlink="http://www.w3.org/1999/xlink"
 width="18px" height="10px" viewBox="0 0 18 10">
<path fill-rule="evenodd"  fill="rgb(255, 255, 255)"
 d="M17.281,0.435 L14.362,0.435 C14.119,0.435 13.896,0.565 13.781,0.775 C13.781,0.775 12.617,2.878 12.243,3.586 C11.237,5.492 10.586,4.894 10.586,4.010 L10.586,0.961 C10.586,0.430 10.147,0.000 9.605,0.000 L7.411,0.000 C6.803,-0.044 6.216,0.224 5.858,0.707 C5.858,0.707 6.972,0.531 6.972,2.003 C6.972,2.368 6.992,3.419 7.009,4.300 C7.017,4.651 6.736,4.941 6.378,4.951 C6.188,4.954 6.006,4.878 5.880,4.739 C4.982,3.513 4.238,2.185 3.663,0.786 C3.563,0.572 3.345,0.434 3.104,0.435 C2.471,0.435 1.205,0.435 0.453,0.435 C0.203,0.434 0.000,0.630 -0.001,0.874 C-0.002,0.927 0.007,0.980 0.027,1.030 C0.832,3.197 4.301,10.006 8.260,10.006 L9.928,10.006 C10.291,10.006 10.586,9.716 10.586,9.359 L10.586,8.374 C10.586,8.023 10.875,7.737 11.232,7.737 C11.397,7.737 11.556,7.800 11.675,7.910 L13.671,9.750 C13.849,9.913 14.086,10.006 14.331,10.006 L16.951,10.006 C18.215,10.006 18.215,9.146 17.526,8.481 C17.041,8.012 15.292,6.204 15.292,6.204 C14.983,5.889 14.953,5.401 15.222,5.053 C15.788,4.324 16.713,3.129 17.105,2.616 C17.641,1.917 18.612,0.435 17.281,0.435 Z"/>
</svg>