<?xml version="1.0" encoding="UTF-8"?><!DOCTYPE svg PUBLIC "-//W3C//DTD SVG 1.1//EN" "http://www.w3.org/Graphics/SVG/1.1/DTD/svg11.dtd"><svg xmlns="http://www.w3.org/2000/svg"><symbol id="icon-chevron-circle-down" viewBox="0 0 512 512">
    <path d="M504 256c0 137-111 248-248 248S8 393 8 256 119 8 256 8s248 111 248 248zM273 369.9l135.5-135.5c9.4-9.4 9.4-24.6 0-33.9l-17-17c-9.4-9.4-24.6-9.4-33.9 0L256 285.1 154.4 183.5c-9.4-9.4-24.6-9.4-33.9 0l-17 17c-9.4 9.4-9.4 24.6 0 33.9L239 369.9c9.4 9.4 24.6 9.4 34 0z"/>
</symbol><symbol id="icon-facebook" viewBox="0 0 10 19">
    <title>
        facebook
    </title>
    <path d="M9.766.157v2.946H8.014c-.64 0-1.071.134-1.295.402-.223.268-.335.67-.335 1.205v2.11h3.27l-.435 3.303H6.384v8.471H2.97v-8.47H.123V6.82H2.97V4.387c0-1.384.387-2.457 1.161-3.22C4.904.404 5.934.023 7.222.023c1.093 0 1.941.045 2.544.134z" fill-rule="evenodd"/>
</symbol><symbol id="icon-instagram" viewBox="0 0 19 19">
    <path fill-rule="evenodd" d="M17 4a2 2 0 1 1 0-4 2 2 0 0 1 0 4zM8 19A8 8 0 1 1 8 3a8 8 0 0 1 0 16zM8 6a5 5 0 1 0 .001 10.001A5 5 0 0 0 8 6z"/>
</symbol><symbol id="icon-telegram" viewBox="0 0 23 20">
    <path fill-rule="evenodd" d="M.404 9.586l5.3 1.976 2.051 6.588a.624.624 0 0 0 .991.298l2.953-2.406a.884.884 0 0 1 1.075-.029l5.328 3.863a.624.624 0 0 0 .978-.376L22.983.75a.623.623 0 0 0-.835-.709L.398 8.42a.623.623 0 0 0 .006 1.166zm7.021.925L17.781 4.14c.187-.114.378.138.219.286L9.451 12.36a1.77 1.77 0 0 0-.548 1.059l-.292 2.155c-.038.289-.444.317-.522.038l-1.12-3.931a1.038 1.038 0 0 1 .456-1.17z"/>
</symbol><symbol id="icon-vk" viewBox="0 0 18 10">
    <path fill-rule="evenodd" d="M17.281.435h-2.919a.66.66 0 0 0-.581.34s-1.164 2.103-1.538 2.811c-1.006 1.906-1.657 1.308-1.657.424V.961A.97.97 0 0 0 9.605 0H7.411a1.773 1.773 0 0 0-1.553.707S6.972.531 6.972 2.003c0 .365.02 1.416.037 2.297a.642.642 0 0 1-.631.651.656.656 0 0 1-.498-.212A18.76 18.76 0 0 1 3.663.786a.613.613 0 0 0-.559-.351H.453a.446.446 0 0 0-.454.439.399.399 0 0 0 .028.156c.805 2.167 4.274 8.976 8.233 8.976h1.668c.363 0 .658-.29.658-.647v-.985c0-.351.289-.637.646-.637.165 0 .324.063.443.173l1.996 1.84a.981.981 0 0 0 .66.256h2.62c1.264 0 1.264-.86.575-1.525a186.36 186.36 0 0 1-2.234-2.277.874.874 0 0 1-.07-1.151c.566-.729 1.491-1.924 1.883-2.437.536-.699 1.507-2.181.176-2.181z"/>
</symbol><symbol id="icon-youtube" viewBox="0 0 10 10">
    <path fill-rule="evenodd" d="M.012 9.983V.007l9.99 4.986-9.99 4.99z"/>
</symbol></svg>